PathFileType	4	(X/Y/Z)	C:/Users/beibeiliu/ov580/test_trc/User2\sequence.35_training_dense_right.trc
DataRate	CameraRate	NumFrames	NumMarkers	Units	OrigDataRate	OrigDataStartFrame	OrigNumFrames
120	120	16	19	mm	120	1	56
Frame#	Time	ThumbCMC			ThumbMCP			ThumbIP			ThumbTip			IndexMCP			IndexPIP			IndexTip			MiddleMCP			MiddlePIP			MiddleTip			RingMCP			RingPIP			RingTip			PinkyMCP			PinkyPIP			PinkyTip			BackHand1			BackHand2			BackHand3	
		X0	Y0	Z0	X1	Y1	Z1	X2	Y2	Z2	X3	Y3	Z3	X4	Y4	Z4	X5	Y5	Z5	X6	Y6	Z6	X7	Y7	Z7	X8	Y8	Z8	X9	Y9	Z9	X10	Y10	Z10	X11	Y11	Z11	X12	Y12	Z12	X13	Y13	Z13	X14	Y14	Z14	X15	Y15	Z15	X16	Y16	Z16	X17	Y17	Z17	X18	Y18	Z18	
0	0	143.295	50.5554	-37.3795	139.848	81.5509	-60.2991	123.016	101.917	-84.915	99.1392	106.762	-98.9541	103.606	20.1612	-106.041	79.9695	24.9332	-131.488	61.8059	41.7235	-144.988	82.3442	5.30067	-104.079	61.0437	16.2189	-132.683	37.4521	46.7109	-137.829	67.1659	3.05174	-92.2014	47.4571	11.6064	-116.618	28.9548	39.2346	-127.237	56.2919	7.20249	-71.3358	38.852	11.911	-95.7281	24.6056	23.282	-113.506	94.4489	-1.04055	-43.3466	112.525	-7.06605	-14.4873	132.305	10.3757	-42.5256	
1	0.00833333	148.04	51.6297	-46.637	138.909	75.9895	-63.7285	121.588	93.2959	-93.7511	101.368	98.8734	-110.204	122.598	9.61129	-111.012	103.237	7.48609	-140.261	76.2194	21.3395	-152.338	108.1	-7.26057	-110.715	83.1166	-2.60967	-143.312	56.4881	22.4471	-150.072	91.1367	-13.8795	-102.27	69.6003	-14.5081	-122.258	50.7181	12.9705	-139.107	77.1021	-10.9821	-78.805	60.8734	-11.9814	-107.364	48.5869	2.43844	-128.015	111.823	-9.47437	-48.2758	126.857	-10.5183	-17.9269	146.622	7.82258	-48.2524	
2	0.0166667	149.69	54.8114	-43.6616	131.593	72.54	-68.6164	114.673	87.4402	-97.5379	95.4799	83.1291	-115.653	142.828	4.57941	-113.645	130.884	-1.3824	-142.332	101.607	2.85076	-157.186	133.484	-17.3404	-118.598	113.08	-17.9019	-148.837	79.6439	0.269331	-157.817	117.646	-27.9224	-104.919	103.61	-29.7616	-130.395	77.0056	-11.5298	-146.339	103.86	-28.5763	-86.3361	90.6104	-32.8839	-112.834	77.7598	-23.7123	-134.38	131.258	-17.2707	-52.4039	141.696	-16.3472	-21.7397	159.535	8.68843	-46.6735	
3	0.025	146.979	57.9262	-46.7982	126.573	73.7099	-67.8801	106.638	79.1453	-100.525	89.1871	71.2348	-120.396	162.077	10.6195	-113.138	149.963	-1.16313	-145.854	122.952	-4.41972	-160.216	157.545	-18.1186	-115.356	139.531	-24.2962	-149.849	105.998	-14.9434	-160.217	147.759	-29.708	-107.98	132.922	-36.5555	-136.252	106.128	-23.3524	-151.137	130.945	-34.647	-87.6044	123.715	-41.5473	-115.04	105.633	-35.5736	-141.932	153.386	-14.9534	-53.6104	156.366	-10.8038	-19.3387	170.096	18.8195	-49.5089	
4	0.0333333	143.6	62.8058	-45.9573	121.009	71.944	-67.5249	102.336	75.1833	-99.6195	89.7136	60.8314	-121.899	176.162	20.2493	-112.922	171.848	12.0544	-142.803	145.478	2.24931	-160.321	179.565	0.669232	-111.977	166.614	-10.7595	-150.313	135.074	-9.90531	-164.195	170.459	-17.1964	-102.978	163.498	-24.611	-137.721	134.154	-20.8444	-155.309	154.402	-30.7307	-86.3956	153.513	-35.73	-121.761	135.581	-32.453	-144.615	167.404	-6.616	-49.2938	169.28	-6.36487	-17.3362	174.631	25.6063	-41.3185	
5	0.0416667	132.996	63.4657	-41.9345	112.095	65.9096	-64.9616	95.9934	66.6294	-94.3646	90.2671	54.98	-120.365	182.652	48.059	-106.415	184.279	35.5632	-137.692	162.961	29.2243	-163.238	194.473	25.5546	-106.639	192.012	17.1224	-144.755	161.554	11.2135	-163.746	192.86	8.31466	-103.347	192.643	0.227289	-133.789	165.691	1.04496	-153.9	181.882	-13.689	-89.9166	183.89	-11.8401	-118.742	168.3	-13.531	-149.12	180.672	3.89886	-49.295	177.485	7.71467	-18.122	175.363	40.1644	-39.172	
6	0.05	118.099	56.6046	-36.6598	96.5281	59.0401	-62.2542	84.0977	60.2109	-97.4024	85.9036	50.4384	-124.303	174.282	76.5328	-94.2918	180.941	78.4907	-127.938	171.82	60.6323	-153.309	193.002	65.3071	-96.1458	197.133	63.9516	-134.136	174.233	46.5522	-159.218	201.872	41.9485	-95.002	204.869	42.3635	-126.491	183.595	33.9485	-150.969	194.146	18.4314	-84.6174	201.419	22.9595	-117.946	188.906	23.4913	-146.671	183.542	28.8985	-41.4544	176.211	23.945	-11.9973	162.601	55.9845	-30.5694	
7	0.0583333	101.037	51.2551	-29.4969	83.6875	52.3525	-60.4501	74.4215	54.1159	-94.978	82.2377	51.1202	-124.402	152.605	99.4751	-80.9037	163.493	105.006	-113.915	158.888	94.3792	-144.54	176.966	91.9448	-84.6134	181.648	98.9947	-120.963	167.842	77.2406	-152.68	190.807	72.3614	-85.5771	195.539	78.6624	-116.21	178.182	72.1712	-142.761	190.256	45.6133	-77.4888	195.733	58.2674	-105.514	191.409	61.2023	-137.058	175.62	50.0691	-37.9902	167.861	34.9007	-5.31954	143.093	64.818	-19.9153	
8	0.0666667	91.2398	50.4127	-29.3147	70.15	49.4218	-55.7487	62.688	51.941	-88.4649	68.1792	51.7626	-118.253	133.573	105.841	-74.2219	141.115	118.601	-103.258	141.541	110.415	-131.981	157.145	102.309	-75.8201	161.104	113.276	-114.564	152.011	99.5288	-142.292	169.371	85.0848	-75.6391	174.633	96.8438	-105.429	162.116	88.5558	-139.495	178.198	60.0058	-74.5824	178.943	74.8237	-102.133	179.143	77.9518	-128.477	165.212	55.6174	-32.7109	159.674	40.2443	-5.04052	130.208	64.5449	-14.9908	
9	0.075	76.5348	44.4074	-21.1966	57.5424	42.8858	-52.2731	47.7643	45.1225	-84.2024	54.47	45.7194	-114.906	119.101	100.216	-73.6548	120.956	113.479	-100.587	121.729	103.805	-134.654	138.402	102.148	-77.7515	142.259	109.307	-115.404	132.841	95.3741	-144.158	154.953	81.9873	-76.1243	156.853	94.0574	-105.682	144.577	85.8422	-137.674	166.156	57.2751	-74.982	164.931	71.7888	-101.505	159.459	79.0938	-126.992	146.857	52.6072	-30.9598	148.56	39.3622	-5.03485	120.166	62.0186	-12.0391	
10	0.0833333	70.9981	38.0458	-22.1573	46.358	33.3024	-50.4592	34.0015	28.8961	-82.4104	42.5015	24.5179	-111.317	104.412	84.1037	-79.0133	107.898	92.1801	-114.816	110.051	78.1161	-140.706	128.344	83.4324	-87.2197	131.522	86.9263	-122.53	119.318	66.3502	-151.31	145.483	68.0594	-85.8355	145.108	73.4672	-115.086	130.725	60.006	-143.443	155.251	41.9459	-78.8302	151.883	52.9667	-106.19	144.792	56.2672	-135.729	138.263	43.6751	-31.4975	139.79	35.1093	-1.25708	109.997	54.4032	-15.4127	
11	0.0916667	62.8318	28.0595	-17.9206	43.6459	17.8531	-44.7575	26.6487	8.1583	-79.522	29.8074	-2.35576	-106.301	93.6912	61.9623	-92.9765	97.7239	58.5674	-125.94	93.3184	37.6699	-150.284	115.269	58.7317	-96.0682	116.961	52.8662	-135.643	102.693	27.7268	-157.499	134.687	44.7985	-94.2617	133.591	41.2863	-124.637	114.647	20.3862	-147.774	141.439	24.522	-84.3505	141.012	24.9842	-115.093	133.272	18.474	-139.786	133.986	33.7829	-40.6459	133.61	30.7293	-6.18713	100.403	49.4225	-24.6981	
12	0.1	58.0834	27.552	-18.1201	38.1441	13.1962	-41.5687	21.5549	-0.809328	-68.1666	20.1959	-14.0111	-93.8347	87.9152	47.5365	-101.024	88.7505	35.2864	-129.966	80.0695	14.7096	-147.611	109.061	42.6223	-107.384	107.555	23.9424	-140.49	93.0028	-3.55561	-153.769	126.757	27.5632	-101.131	123.965	14.2243	-130.927	102.045	-6.7101	-145.158	138.056	8.77583	-86.8067	131.205	3.62539	-115.132	119.072	-8.39105	-137.484	129.726	29.3584	-41.9625	131.06	27.9415	-9.7814	99.3282	46.9562	-24.6332	
13	0.108333	62.207	32.3506	-19.3755	34.8423	19.2311	-37.4668	18.406	5.09588	-63.2054	12.034	-10.7892	-83.7882	86.8349	37.903	-99.183	82.582	22.5719	-128.594	68.5135	-5.12165	-143.316	109.03	30.0731	-105.144	99.957	11.6916	-136.928	79.4139	-21.7639	-145.952	123.623	14.2828	-103.914	111.177	2.51383	-127.174	93.4312	-22.1554	-136.556	133.916	-2.53998	-84.0156	122.474	-13.4875	-114.495	106.865	-24.4892	-129.066	128.227	25.9456	-40.3314	132.232	28.6866	-12.3004	100.572	49.0178	-26.4922	
14	0.116667	63.7319	44.2035	-16.3911	32.236	36.3053	-29.7333	13.6247	21.5608	-55.2593	6.02911	3.59605	-79.8041	82.5649	36.4557	-102.314	72.7881	15.1525	-124.921	54.3812	-6.68689	-132.45	99.4073	25.0237	-106.2	88.6652	2.41809	-131.617	61.059	-26.0075	-133.746	115.739	4.72027	-100.912	98.0051	-11.8443	-124.487	70.5157	-31.6183	-124.488	122.72	-10.1501	-81.6327	111.818	-24.0517	-107.891	85.6254	-37.6515	-120.858	129.741	20.2873	-42.2576	133.257	29.4	-11.3742	104.531	49.1318	-31.082	
15	0.125	72.9486	62.7789	-14.3864	41.4191	61.1233	-25.1066	14.5661	52.7499	-46.0471	3.34618	34.3584	-65.1989	79.1989	40.7447	-98.88	59.3816	22.6323	-119.277	35.4365	4.96212	-121.829	90.8049	21.5598	-105.367	65.1955	4.24078	-125.585	36.4218	-13.9051	-120.642	99.0062	4.0008	-98.4768	81.9841	-14.0036	-116.068	47.0306	-25.377	-111.172	106.578	-14.8019	-78.296	86.8735	-26.3499	-100.079	57.9651	-32.893	-106.629	128.033	15.5132	-41.751	137.756	22.6176	-15.3361	112.769	51.6584	-29.0443	
